<?xml version="1.0" encoding="utf-8"?>
<svg viewBox="114.1441 29.1006 278.0279 438.9909" width="27.62" height="43.61" xmlns="http://www.w3.org/2000/svg">
  <path d="M415.634,249.966l-6.034-6.034V128c0-4.713-3.82-8.533-8.533-8.533c-35.41,0-66.945-16.591-87.256-42.424 c-0.012-0.015-0.023-0.03-0.035-0.045c-14.81-18.856-23.642-42.629-23.642-68.465c0-4.713-3.82-8.533-8.533-8.533H128 c-14.142,0-25.6,11.458-25.6,25.6v218.332l-6.034,6.034c-1.6,1.6-2.499,3.771-2.499,6.034v230.4c0,14.142,11.458,25.6,25.6,25.6 h273.067c14.142,0,25.6-11.458,25.6-25.6V256C418.133,253.737,417.234,251.566,415.634,249.966z M390.034,224.366 c-3.332-3.332-8.735-3.332-12.068,0L358.4,243.932l-19.566-19.566c-3.332-3.332-8.735-3.332-12.068,0l-11.033,11.033v-47.665 h76.8v39.132L390.034,224.366z M287.634,224.366c-3.332-3.332-8.735-3.332-12.068,0L256,243.932l-19.566-19.566 c-3.333-3.332-8.736-3.332-12.068,0l-11.033,11.033v-47.665h85.333v47.665L287.634,224.366z M119.467,85.333h76.8v85.333h-76.8 V85.333z M213.333,85.333h85.333v85.333h-85.333V85.333z M392.533,136.253v34.413h-76.8V103.93 C336.399,122.428,363.105,134.316,392.533,136.253z M287.839,68.267h-74.506v-51.2h60.013 C274.558,35.468,279.664,52.804,287.839,68.267z M128,17.067h68.267v51.2h-76.8V25.6C119.467,20.883,123.284,17.067,128,17.067z M119.467,187.733h76.8v47.665l-11.033-11.033c-3.332-3.332-8.735-3.332-12.068,0L153.6,243.932l-19.566-19.566 c-3.332-3.332-8.735-3.332-12.068,0l-2.499,2.499V187.733z M401.067,486.4c0,4.716-3.817,8.533-8.533,8.533H119.467 c-4.716,0-8.533-3.817-8.533-8.533V259.535l6.034-6.034c0,0,0,0,0,0L128,242.468l19.566,19.566c3.332,3.332,8.735,3.332,12.068,0 l19.566-19.566l19.566,19.566c0.199,0.199,0.408,0.387,0.625,0.565c0.098,0.081,0.202,0.151,0.303,0.226 c0.122,0.091,0.241,0.186,0.368,0.271c0.121,0.081,0.246,0.151,0.37,0.225c0.115,0.069,0.227,0.141,0.346,0.204 c0.127,0.068,0.257,0.125,0.387,0.186c0.123,0.058,0.244,0.119,0.37,0.172c0.127,0.052,0.256,0.095,0.385,0.141 c0.134,0.048,0.266,0.1,0.404,0.141c0.128,0.039,0.259,0.067,0.389,0.1c0.14,0.035,0.279,0.075,0.422,0.103 c0.149,0.03,0.3,0.047,0.45,0.069c0.125,0.018,0.248,0.042,0.375,0.054c0.56,0.055,1.124,0.055,1.684,0 c0.127-0.012,0.25-0.036,0.376-0.054c0.15-0.022,0.301-0.039,0.45-0.069c0.143-0.028,0.281-0.068,0.422-0.103 c0.13-0.033,0.26-0.061,0.389-0.1c0.137-0.042,0.269-0.093,0.404-0.141c0.129-0.046,0.258-0.088,0.385-0.141 c0.126-0.052,0.247-0.114,0.37-0.172c0.129-0.061,0.26-0.118,0.387-0.186c0.118-0.063,0.231-0.136,0.346-0.204 c0.124-0.074,0.25-0.144,0.37-0.225c0.127-0.085,0.246-0.179,0.368-0.271c0.101-0.076,0.204-0.146,0.303-0.226 c0.217-0.178,0.427-0.367,0.625-0.565l19.566-19.566l19.566,19.566c3.332,3.332,8.735,3.332,12.068,0l19.566-19.566 l19.566,19.566c0.584,0.584,1.233,1.059,1.922,1.438c0.018,0.01,0.034,0.021,0.052,0.03c0.219,0.119,0.442,0.224,0.669,0.322 c0.028,0.012,0.055,0.027,0.083,0.038c0.227,0.096,0.459,0.178,0.692,0.253c0.032,0.01,0.062,0.023,0.094,0.033 c0.251,0.078,0.505,0.142,0.761,0.196c0.016,0.003,0.032,0.008,0.049,0.012c1.13,0.231,2.297,0.231,3.428,0 c0.016-0.003,0.031-0.008,0.047-0.012c0.257-0.054,0.511-0.118,0.763-0.196c0.031-0.01,0.061-0.022,0.092-0.032 c0.234-0.075,0.465-0.158,0.693-0.254c0.028-0.012,0.054-0.026,0.081-0.038c0.227-0.098,0.451-0.204,0.671-0.323 c0.017-0.009,0.032-0.02,0.049-0.029c0.689-0.379,1.34-0.855,1.924-1.439l19.566-19.566l19.566,19.566 c3.333,3.332,8.736,3.332,12.068,0L384,242.468l11.033,11.033c0,0,0,0,0,0l6.034,6.034V486.4z" style="fill: rgb(170, 87, 74);" transform="matrix(0.8574040532112122, 0, 0, 0.8574040532112122, 33.66215896606445, 29.100574493408175)"/>
  <g transform="matrix(0.34876968854569235, 0, 0, 0.34876968854569235, 167.42747446381878, 268.31463072204497)" style="">
    <path d="M245,0C109.69,0,0,109.69,0,245s109.69,245,245,245s245-109.69,245-245S380.31,0,245,0z M245,459.375 c-118.206,0-214.375-96.168-214.375-214.375c0-118.206,96.169-214.375,214.375-214.375S459.375,126.794,459.375,245 C459.375,363.207,363.206,459.375,245,459.375z" style="fill: rgb(255, 111, 97);"/>
    <polygon points="95.583,258.914 203.967,306.033 203.967,275.528 128.362,245.546 203.967,216.641 203.967,185.911 95.583,232.82 &#9;&#10;&#9;&#9;" style="fill: rgb(255, 111, 97);"/>
    <polygon points="213.986,326.744 236.312,326.744 275.894,163.256 253.135,163.256 &#9;" style="fill: rgb(255, 111, 97);"/>
    <polygon points="285.928,216.431 361.638,245.86 285.928,275.633 285.928,306.153 394.416,258.914 394.416,233.03 285.928,186.12 &#9;&#10;&#9;&#9;" style="fill: rgb(255, 111, 97);"/>
  </g>
</svg>